<?xml version="1.0" encoding="UTF-8"?>
<svg id="n6" xmlns="http://www.w3.org/2000/svg" version="1.1" viewBox="0 0 256 256">
  <defs>
    <style>
      .st0, .st1, .st2 {
        fill: #fefefe;
      }
    </style>
  </defs>
  <path class="st2" d="M184.6,94.3c9,.3,10.4,13.5,12.6,20.3,10.3,31.5-2.3,73.3-33.5,87.8-6.3-20.2-14.1-41.3-19.4-61.7-15.7-39.8-.9-13.1,40.3-46.4Z"/>
  <path class="st2" d="M70.3,94c2.9.6,15.3,10.4,19.5,12.7,5.3,3,12.7,5.6,18.6,7.4,3,1.1,7.4.8,9.2,3.8,1.7,7.6-3.6,15.3-5.5,22.6-5.5,21.1-13.5,41.4-19.5,62.4-30.8-15.5-43.7-56.3-33.4-88.1,2-7.5,3.3-17.1,11.2-20.7Z"/>
  <path class="st2" d="M112.1,178.3c10.7,2,21.4,1.7,32.1,0,1.2,4.7,3.6,7.8,2.5,12.9-12.5,2.9-23,3.7-35.6.3-5.5-1.5-.3-10,.9-13.3Z"/>
  <path class="st0" d="M174.1,75.4c-20.4-23.3-56.4-30.5-81.1-9.8-4.4,3.9-16.8,11-11.1,17.6,10.2,9.8,25.1,16.9,39.3,18.5,1.4-.4,3.4-.5,5.6-.5-2.2,0-4.2.2-5.6.5,4.6.5,9.8.5,14.3,0,7.2-.2,23.4-6.7,29.3-11,4.5-3.4,14.7-9.1,9.3-15.4Z"/>
  <path class="st1" d="M139.3,162c-.6-1.6-2.7-6.7-4.3-7.3-2.3-.8-7.1.9-10.2.3-1-.2-3.1-.9-4.1-.3-1.2.6-4.3,7.7-4.6,9.2-1.1,3.9,4.9,4.9,7.6,5.5.6-.2,2.2-.5,3.9-.6-1.7,0-3.2.3-3.9.6,2.8.3,6.3.7,9.1,0-.5-.3-1.4-.4-2.5-.5,1.1,0,2,.2,2.5.5,4-.6,8.9-2.4,6.5-7.3Z"/>
</svg>