<?xml version="1.0" encoding="UTF-8"?>
<svg id="n16" xmlns="http://www.w3.org/2000/svg" version="1.1" viewBox="0 0 256 256">
  <defs>
    <style>
      .st0 {
        fill: #fefefe;
      }
    </style>
  </defs>
  <path class="st0" d="M70,86.2c2.6.5,8.1,6.6,11,8.4,4.5,2.9,10,4.5,14.7,6.8s3.1,3.3,2.5,5.5c-14,55,38.4,93.4,59.4,36.5,10.1-45.7-17.3-34.8,19.7-52.8,2.7-1.7,7-6.3,10.1-2.7,16.8,19.6,17.9,47.3,4.7,68.1-49.4,77.9-184.9,8.1-122.1-69.9Z"/>
  <path class="st0" d="M121.5,106.3c4.7,0,9.7-.4,14.4.2,4.9,13.5,6.7,32.1-4.8,42.7-16.8,4-17.7-35.3-9.6-42.9Z"/>
</svg>