<?xml version="1.0" encoding="UTF-8"?>
<svg id="n15" xmlns="http://www.w3.org/2000/svg" version="1.1" viewBox="0 0 256 256">
  <defs>
    <style>
      .st0 {
        fill: #fefefe;
      }
    </style>
  </defs>
  <path class="st0" d="M107.9,42.7c6.4-.4,7.8,25.1,10,30.5,1.9,8.8,3.7,6.3,10.9,5.7,1.4.2,4.8,1.4,6,1,6.7-3.6,5.2-38.6,13.9-36.9,3.8,14.8,8.5,29.4,11,44.6,1.8,6.8,6.2,11.8,9.1,18.1,4.8,13.7,4.8,27.3-.9,40.6-2.1,5.6-5.1,10.9-8.9,15.6-4.1,4.9-8.9,7.8-9.5,14.7-.3,13.9.8,34.3-16.8,37.1-14.2,3.1-26.6-8-25.5-22.4-.9-12.3,1.2-20.2-9.6-28.8-12-14.1-16.8-34.5-12.1-52.3,1.7-7.6,8-13.2,10.1-20.5,3.4-15.8,7.1-31.7,12.1-47ZM115.1,157.5c.3-5.8-6.1-14.2-8.7-20.1-3.5-6.5-9.2-13.5-14.8-18.4,0,9.2-.3,19.8,3.4,28.4,2.8,5.3,5.7,7,10.7,9,2.4,1.1,6.6,2,9.4,1.1ZM141.3,157.6c2.7.5,6.9-.2,9.2-1.2,3.3-1.4,4.8-2.9,7.7-5.3,6.7-6.1,6.9-22.8,6.5-31.3-5.2,2.3-11.3,11.6-13.9,16.3-1.3,3.7-12.9,20.4-9.4,21.5Z"/>
  <path class="st0" d="M197.6,93.6s.8.2.8.2c17.7,28.5,13.1,64.8-8.1,90.2-4.7-2.3-7.2-5-9.7-9.1-6.8-9.8-9.1-14.3-2.6-25.7,3.1-17.1,11.8-20.2,17.5-34.4,2.6-7.2,0-15,2.1-21.1Z"/>
  <path class="st0" d="M57.2,93.6c4.4,2,.6,14.8,2.9,19.6,1.8,8.1,7.9,14.3,12.7,20.7,3.6,8.1,6,17,9.2,25.3-1.8,8.9-6.4,21.5-16.1,24.1-22.7-24.3-24.4-61.2-8.6-89.6Z"/>
</svg>