<?xml version="1.0" encoding="UTF-8"?>
<svg id="n12" xmlns="http://www.w3.org/2000/svg" version="1.1" viewBox="0 0 256 256">
  <defs>
    <style>
      .st0 {
        fill: #fefefe;
      }
    </style>
  </defs>
  <path class="st0" d="M124,47.8c.5-.5,1.2-.7,1.9-.6,6.4.9,14,7.2,19.6,10,7.4,3.8,26.1,14.2,32.2,19.9s.8,1.2.7,1.9c-.6,4-28.9,31.8-34.5,41.5s-.3,2.4.7,3c7.3,4.8,22.9,19,26.9,23.3s.3.4.4.6c.6,1.4.4,2.8,0,4.3s-.4.9-.7,1.2c-18.3,15.4-40.9,37.3-57.4,54.6-.4.5-1,.7-1.7.7h0c-1.4,0-2.5-1.3-2.2-2.7,3.2-15.2,9.9-29.2,13.5-44.3s-.2-1.9-1-2.4c-8.2-5-42.8-31-45.7-34.7-2.3-3.4,29.9-58.9,47.2-76.1Z"/>
</svg>