<?xml version="1.0" encoding="UTF-8"?>
<svg id="n17" xmlns="http://www.w3.org/2000/svg" version="1.1" viewBox="0 0 256 256">
  <defs>
    <style>
      .st0 {
        fill: #fefefe;
      }
    </style>
  </defs>
  <path class="st0" d="M191.8,71.8c-16.2-8.9-46,1.1-57.1,15-2.3,2.8-3,6.3-4.7,8.3-3.6,1.9-5.5-2-6.5-4.9-19.1-27.2-81.9-36.8-60.6,15.3,1.5,5.3,13.8,26.6,28.3,32-5.6,8.7-19.8,30.6-1.2,32.8,3.7.4,10.6.5,14.6-.6s6.5-4.4,9.6-4.3c2.6,3.2-4.4,12.4-4.2,18.9-1.8,4.8-8.1,32.9,3.6,16.6,6.1-11.1,9.3-23.5,12.5-35.6l4.5.9c1,8.6,8.8,37.3,17.3,39.9,4.1-9-2.8-20.1-3.7-29.6-1.7-5.5-3.3-5.1-3.1-11.9,10.8,6.1,17.8,6.8,25.1,5.7,17.9-2.6,4.1-23.7-1.1-32,.2-1.1,2.5-2,3.5-2.6,7.7-4.2,9.8-5.1,15.7-12,9.5-13.5,19.1-37.6,7.4-52ZM149.8,126.8c-6.3,6.5-11.2,9.7-20.3,10.2-6.4,1.7-27.3-6.7-22.9-14.5,15.4-4.8,11.2-2.1,20.3-14.7,0,0,3.3-.5,3.9,1,3,7.4,10.4,12.4,18,13.4,2.2.4,1,3.2,1,4.7Z"/>
</svg>