<?xml version="1.0" encoding="UTF-8"?>
<svg id="n1" xmlns="http://www.w3.org/2000/svg" version="1.1" viewBox="0 0 256 256">
  <defs>
    <style>
      .st0 {
        fill: #fefefe;
      }
    </style>
  </defs>
  <path class="st0" d="M196.5,154c-15.7.8-39.6,0-55.5.3-6-.4-12.7,1.1-18.3-1.3-.7-.5-1-1.2-1.1-2.1.7-9.4-7.8-7.8-14.3-7.6-11.8.2-29.4,0-41.1,0h-.2c-2.2.5-4.6,1.3-6.7,2.2.1,10.9-3.7,30.5,7.5,37.1,26.7,18.8,36.3,26,69.1,14.1,12.7-2.5,24.8-7.3,37.1-11.2,17.8-5.9,27.3-10.8,23.5-31.5Z"/>
  <path class="st0" d="M59.5,123.1c7.7,2.6,19.1,5.9,24.9-1.8.3-1,.5-61.6,0-63.8-2.7-6.2-13.5-4.2-19.2-4.2-3.8.3-6.7,2-6.1,6.2-.3,20.9-.6,42.7.3,63.6Z"/>
  <path class="st0" d="M144.8,114.6h0c-2.6.1-5.1.1-7.6,1.2-2.8,8.1-5.9,27.5,6.9,27.9,17.5.2,35-.3,52.5.2.7-9.8.8-19.7.2-29.5-15.5,1-36.3,0-51.9.2Z"/>
  <path class="st0" d="M98,123c5.8,3.7,22.4,6,23.1-3.7.4-8.2,0-26.3.1-34.8v-18.6c.5-5.3.9-13.6-6.7-12.8-18.7-.8-17,.1-16.9,17.5.4,15.6-.7,37,.4,52.4Z"/>
  <path class="st0" d="M171.7,102.5c8.3,1.1,16.8.2,25.1.6-.2-15.5,1.3-32.5-.5-47.8-4.9-3.1-14.7-2.4-20.1-2-7.1,2.3-4.7,9.3-4.8,15.2.3,11.3-.9,22.8.3,34Z"/>
  <path class="st0" d="M137.6,102.9c0,0,.2,0,.3,0,2.7.2,18,.8,20.2-.1,0,0,0,0,0,0,0,0,0,0,0,0,0,0,0,0,0,0,0,0,0,0,0,0,.8-6.7.3-14.9.3-21.7-.4-8.3,1.7-18.5-1.4-26.3-3.1-2.6-7.9-1-11.6-1.3-4.3-.6-8.8-.3-10.9,4.2h0c1,11.5,0,23.1.3,34.5.4,3.5-2.5,10.4,2.8,10.9Z"/>
</svg>