<?xml version="1.0" encoding="UTF-8"?>
<svg id="n9" xmlns="http://www.w3.org/2000/svg" version="1.1" viewBox="0 0 256 256">
  <defs>
    <style>
      .st0, .st1 {
        fill: #fefefe;
      }
    </style>
  </defs>
  <path class="st1" d="M130.8,204.9c-1.1-.2-3.1-.4-3.6-1.5,1.3-2.8,5.4-2.2,7.8-3.3,5.9-2.5,10.2-9,11.5-15.1,2.5-19.4-23.3-27.9-30.7-43-9.2-13.4-3-17.2-6.6-26.1-18.4,14.5-25.2,42.6-19,64.7,1.6,7,7.9,12,11,17.6l-.3.2c-21.2-9.7-35-40.9-25.4-62.9,6-23.9,32.4-38,42.9-59.1,2-6.2-.1-12.6-3.4-18-1.7-2.8-7.1-4.2-6.8-6.6,14.8-5.1,35.6,5.6,36.7,22.2,2.9,15.1-8.4,25.4-9.1,40,0,6.2,2.4,13.1,9.1,14.2-2.2-10.9-7.3-11.6,1.6-22.9,3.6-3.2,14-9.9,18.4-6,0,2.6-6.2,6.2-5.4,12.4,3.9,15.7,21.7,24.8,23.9,41.4,3.3,25.8-19.9,48.9-44.8,51.6-1.9-.6-6.3-.9-8,0Z"/>
  <path class="st0" d="M130.8,204.9c1.7-1,6.1-.7,8,0-2.7.3-5.3.3-8,0Z"/>
</svg>