<?xml version="1.0" encoding="UTF-8"?>
<svg id="n2" xmlns="http://www.w3.org/2000/svg" version="1.1" viewBox="0 0 256 256">
  <defs>
    <style>
      .st0 {
        fill: #fefefe;
      }
    </style>
  </defs>
  <path class="st0" d="M201.6,53.5c17.6-2.2-16.3,35-21.2,37.6-8.4,8-19.2,13.2-29.7,17.9-6.3,2.9-15.4,3.2-19.9,8.4.5,4,13.4,1.1,16.1.8,5.6-1.5,11.3-2.6,17-3.8,7.4-2.3,14.7-6.5,22.6-6.8-8.6,16.6-26.9,26.6-44,32.3-8.5,1.5-17,3.7-25.2,6.4-.6.3-.8.6-1.1,1.2l.3.5c9.7,4.3,33.6-4.6,44.1-2.8.9,4.3-10,9.6-13,11.8-14.3,8.6-31.6,7.7-47.4,10.3-5.4,6.7-20.3,30.1-26.3,33.6-7.1.3-2.7-9.8-2.4-13.9,1.3-15.2,4.1-30.6,8.8-45.1,6.1-20.7,10.7-45.7,28.1-60,6-3.5,12.4-4.5,19-6.2,25.5-4.7,49.3-15.1,74.1-22.2Z"/>
</svg>