<?xml version="1.0" encoding="UTF-8"?>
<svg id="n7" xmlns="http://www.w3.org/2000/svg" version="1.1" viewBox="0 0 256 256">
  <defs>
    <style>
      .st0 {
        fill: #fefefe;
      }
    </style>
  </defs>
  <path class="st0" d="M122.1,59.6c37.5-6.2,68.8,36.3,58.2,71,8.2-4.5,20.3-6,26,3.2,3.7,5.5,9.2,14.7,7.2,21.6-7-1.2-9.2-9-14.7-4.4-4.3,3.4-6.4,14-13.3,15-5-.6-10.2-5.4-12-9.9-6.4,1.3-12.8,17.6-18.9,22.8-25.8,31.5-41.5,15.6-61.4-10.9-4.5-6.1-4-7.9-10.6-12.7-1.1,5.2-6.8,9.9-11.9,10.6-5.8.1-9.4-11.3-13.1-14.8-6.1-5.5-8.9,4.9-14.9,3.9-2-7.6,3.7-14.9,7.2-21.3,5.3-8.8,18.6-8,26-2.6-9.2-30.2,13.5-69.7,46.3-71.4ZM95,92.8c.5,9.1,2.5,18.5,9.6,24.8,3.6,3.3,10.1,4.2,12.2-1.1,6.4-10.5-12.6-44.5-21.8-23.7ZM146.1,120.3c11-3.3,14.9-17.4,15.2-27.7-11.3-24-36,28.1-15.2,27.7Z"/>
</svg>