<?xml version="1.0" encoding="UTF-8"?>
<svg id="n11" xmlns="http://www.w3.org/2000/svg" version="1.1" viewBox="0 0 256 256">
  <defs>
    <style>
      .st0 {
        fill: #fefefe;
      }
    </style>
  </defs>
  <path class="st0" d="M109.1,73.6c.5.1.7.3,1.1.6,2.9,13-.9,39.9-2.7,53.6-1.4,24.2-4.5,48.2-7.9,72.2-1.1,7.8.2,16-10.5,15.6-13.4,0-28.5.6-41.9-.3-7.1-1.5,1.6-12,2.4-16.2,2.1-4.9,9.6-22.6,11.1-27.3,9.5-23.4,19.9-49.3,31.6-71.5,4.9-8.9,8.4-20.3,16.7-26.5Z"/>
  <path class="st0" d="M209.5,76.8l2.7-.2c-4.9,43.8-13.1,88.2-21.6,131.5-3.1,11.5-18.9,6.2-27.9,7-7.7,0-15.3.2-23,.4-6.5,0-2.6-8.4-.8-11.6,4.4-9.1,8.5-18.4,13.2-27.4,12.1-24.5,24.3-48.9,38.1-72.5,3.2-6,6.8-11.8,10.7-17.4,2.7-3.3,3.7-9.6,8.7-9.9Z"/>
  <path class="st0" d="M160.1,42.5c7.8-2,4.7,7.3,4.3,11.8-1.4,14.3-1.8,28.7-3.2,43-1.9,10.7-2.9,23-4.3,33.6-2.6,8-6.1,15.6-10.2,23-5.2,10.4-10.1,21-16.2,30.9-3,4-4,11.5-9.4,12.6-.6,0-1-.4-1.3-.9-2.3-13.1,2.9-36.6,3.7-50.4,2.3-37.2,18.6-71.7,36.7-103.4Z"/>
</svg>