<?xml version="1.0" encoding="UTF-8"?>
<svg id="n4" xmlns="http://www.w3.org/2000/svg" version="1.1" viewBox="0 0 256 256">
  <defs>
    <style>
      .st0, .st1 {
        fill: #fefefe;
      }
    </style>
  </defs>
  <path class="st0" d="M125.7,115.1c9.3-.3,17.8,5.1,26.5,7.8,15.9,5,30.7,12.7,45.9,19.4,1.8,10.6-13.1,11.9-20,15.9-16.3,7.2-33,13.5-50,18.8-16.1-5-31.8-11.3-47.4-17.8-6.7-3.9-24.6-6.4-22.7-16.5,21.6-11.4,44.6-20,67.7-27.6Z"/>
  <path class="st0" d="M57.3,162.9c22.4,10.5,46.4,21.2,70.5,27.3,13.7-2.5,27.3-8.9,40.3-13.9,10.2-3,20.7-9.3,30.3-13.1,11.4,8.2-6.5,13.7-12.8,16.6-17,6.5-46.1,23.1-63.5,20.2-17.5-5.7-34.8-12.4-51.6-20.2-6.8-3-23.3-7.9-13.3-16.9Z"/>
  <path class="st0" d="M69.8,54.5c4.7,1.1,24.6-2.9,24.1,2.9.1,3,.8,21-1,23-7.9-.9-15.9.2-23.8-.3-.4-5.8-2.6-20.7.7-25.6Z"/>
  <path class="st0" d="M163.8,72.1c3-.1,17-.7,18.9.5.7,3.4,1.5,16.6-.8,19.9-6.2-.6-12.5.2-18.7-.1-.3-3.5-2.8-18.1.5-20.2Z"/>
  <path class="st1" d="M118.4,87c-2.4-.2-13.2-1.2-14.7,0-.8,2.2-2.5,14,.2,15.3,2.2.3,13.8.7,15.1-.2,0-5,.2-10.2-.7-15.1Z"/>
</svg>