<?xml version="1.0" encoding="UTF-8"?>
<svg id="n14" xmlns="http://www.w3.org/2000/svg" version="1.1" viewBox="0 0 256 256">
  <defs>
    <style>
      .st0, .st1 {
        fill: #fefefe;
      }
    </style>
  </defs>
  <path class="st1" d="M122.8,80.8c2.3-.8,3.3-3.4,2.1-5.5-4.1-7.2-17.4-12.1-12-17.9,2.4-2.2,8.7-10,13.1-12.7s3-.8,4.3.1c4.4,3.1,11.4,11.3,13.4,13.7,3.2,4.8-8.1,10-12.4,16.7s-.4,5,2,5.8c11.5,3.8,21.7,12,32.2,18.1s5.7-.3,5.8-3.2c.1-4.5-.4-10.5,0-14.4s1.6-3.4,3.5-3.5c4.4-.4,12.6-.5,17.5-.5s3.7,1.6,3.8,3.7c.3,6,.3,12,0,18s-1.9,3.8-4,3.8c-5.4-.1-10.9.2-16.3,0s-4,1.7-4,3.8c-.1,14.2.1,28.5,0,42.8s1.8,4,4,3.9c5.5-.2,11.1-.3,16.6,0s3.7,1.7,3.8,3.8c.2,5.8,0,11.5-.2,17.2s-1.8,3.8-3.9,3.8c-5.6,0-11.2-.3-16.8,0s-3.9-1.4-4.1-3.5c-.4-4,.2-9.7,0-14.3s-3.5-4.7-6-3.1c-10.2,6.5-20.4,13.8-31.6,17.8s-3.2,3.4-2.1,5.5c9,16.4,23.9,8.8-1.2,30.5s-3.4,1.3-4.8.2c-4.2-3.1-10.5-10.3-12.5-12.3-5.9-6,6.6-10.2,11.6-18s.3-4.8-1.9-5.6c-11.5-4.2-21.8-11.6-32.2-18.1-2.5-1.6-5.7.1-5.9,3.1-.3,4.8,0,9.7-.2,14.5s-1.7,3.8-3.8,3.8c-5.7,0-11.5.2-17.2.2s-3.6-1.6-3.8-3.6c-.4-5.3-.5-12.9-.1-18.2s1.7-3.6,3.7-3.6c5.5-.2,11.2-.2,16.7,0s4-1.6,4-3.7c.4-14.2-.4-28.5,0-42.8s-1.6-3.9-3.8-4c-5.7,0-11.4.4-17,0s-3.5-1.7-3.6-3.6c-.3-5-.4-13.3.1-18s1.8-3.3,3.7-3.4c4.4-.2,12.4,0,17.2.2s3.6,1.7,3.7,3.7c.2,4.2,0,9.7.2,13.9s3.1,4.5,5.6,3.3c10.8-5.4,20.9-14.2,32.6-18.1ZM98.5,142c15.7,3.5,6.8-12.7,10.2-23.6s.5-1.1.9-1.5c4.5-4.5,12.1-8,17.5-11.5s1.7-1.7,1.8-2.9c.1-1.9-.7-3.9-1.5-5.6s-1.5-1.9-2.7-2.2c-6.7-1.2-18.5,10.2-24.8,13.8s-1.3,1-1.6,1.8c-2.9,6.7-3.1,20-2.8,28.1s1.3,3.2,3,3.6Z"/>
  <path class="st0" d="M173.2,178.3c7.5-.9,15.4-.2,22.9-.3l-.3.6c-1.4.3-20.9,0-22.6-.3Z"/>
</svg>