<?xml version="1.0" encoding="UTF-8"?>
<svg id="n0" xmlns="http://www.w3.org/2000/svg" version="1.1" viewBox="0 0 256 256">
  <defs>
    <style>
      .st0 {
        fill: #fefefe;
      }
    </style>
  </defs>
  <path class="st0" d="M71.7,47.6c9.3-.8,17.2,2.4,24.3,8.3,3.1-2.8,27.1-8.5,35.2-7.6,9.3,2.5,20.7,1.8,28.3,8.1,30.5-25.2,63.2,10,44.9,41.7,27.2,50.3-10.8,112.3-65,121-64.3,9.7-119.7-63.9-88.4-122.1,0-5-3.8-8.7-4.3-13.6-3.4-16.7,8.6-32.3,24.8-35.7h.2ZM132.7,194.7c79.9-7.8,70.3-126.8-9.8-121.6-79.4,6.8-69.7,127.6,9.8,121.6Z"/>
</svg>