<?xml version="1.0" encoding="UTF-8"?>
<svg id="n3" xmlns="http://www.w3.org/2000/svg" version="1.1" viewBox="0 0 256 256">
  <defs>
    <style>
      .st0 {
        fill: #fefefe;
      }
    </style>
  </defs>
  <path class="st0" d="M126,151.1c14.1-1.4,26.8,9.7,28.6,23.5,18.9,6.6,41.7,2.7,58.8,15.6,10.9,26.7-181.2,27.1-170.6-.2,14.1-9.8,31.8-10.2,48.1-12.9,8.3.3,10.5-1.5,12.4-9.3,3.5-9.6,12.8-15.6,22.7-16.6Z"/>
  <path class="st0" d="M95.7,45.6c41.3-3.2,46.7,59.5,5.4,63.3-41.8,3-47.1-59.2-5.4-63.3Z"/>
  <path class="st0" d="M164.1,100.8c25.2-.2,26,37.3.8,38.2-24.9.3-25.7-37.4-.8-38.2Z"/>
</svg>