<?xml version="1.0" encoding="UTF-8"?>
<svg id="n13" xmlns="http://www.w3.org/2000/svg" version="1.1" viewBox="0 0 256 256">
  <defs>
    <style>
      .st0 {
        fill: #fefefe;
      }
    </style>
  </defs>
  <path class="st0" d="M126.2,53.3c20.3-1.4,21.6,26.1,41.2,27.2,7.8,1.2,13.9-.4,20.7,4.8,18.8,16.7-4,27.9-.7,46.4.6,8.7,7.1,13.9,8.2,22.1.7,5.5-1.7,10.5-5,14.8-7.7,9.6-20.7,4.1-30.5,9.4-13.6,5.1-14.4,23.3-30.1,24.8-16.4,1.9-19.6-16.9-31-23.6-8.9-5.8-19.8-2-28.9-6.9-10.9-7.4-11.9-20.1-4.7-30.5,13.7-23.9-14.5-33.8-1-52.7,8.4-12.4,25.1-4.7,35.9-13,9.4-7,12.3-21.6,25.9-22.7ZM82.1,103.9c10.6,13.5,8.8,34.6.4,48.9,5.8,2.9,12.3,3.6,18.5,5.1,9.2,3.3,20.4,11,24,20.5,2.1.3,3.9.5,5.9,0,3.5-8.4,13.8-16.4,22.1-19.8,6.8-2.5,14.5-2.2,20.8-6.3-9.8-14.3-9.6-34.7,0-48.9-6.3-3.2-13.3-3.7-19.9-5.6-7.4-2.8-20.7-11.9-22.5-20.2-7.3-1.1-6.4.5-9.8,6.3-13.3,15.7-23.7,12.8-39.4,20Z"/>
</svg>