<?xml version="1.0" encoding="UTF-8"?>
<svg id="n5" xmlns="http://www.w3.org/2000/svg" version="1.1" viewBox="0 0 256 256">
  <defs>
    <style>
      .st0 {
        fill: #fefefe;
      }
    </style>
  </defs>
  <path class="st0" d="M99.1,53.1c16,.7,43-.5,58.8.4,8.1,6.3,16.1,13.7,21.9,22.2,5.3,3.7,10.1,8,14.2,13,3.3,4,9.8,6.8,9,12.7-.6,19,.9,38.3-.3,57.2-5.9,7.9-21.2,19.5-27.3,27.7-2.6,2.9-15.2,15.7-17.7,16.8-2.8.4-5.8.2-8.7.2-15.3-.3-31.3.4-46.5,0-2.7.2-5.4-.6-7.3-2.6-6.6-6.7-13.8-12.8-19-20.6-5.9-3.4-19.2-16.9-22.7-21.8-1.2-20.1-1.1-41-.1-61,14.9-14.5,29.1-31.6,45.6-44.1ZM121.8,193.2c.2-1.2.5-2.3.8-3.5-19.2-14.5-37.1-31-51.7-50.1-2.1-2.6-3.6-6.8-7.7-5.9,2.8,44,14.4,55.5,58.6,59.4ZM136.9,193c45.1-6.3,50.5-13.8,56.5-58.7-1.1-.2-2.2-.6-3.3-.7-13,17.1-28,32.8-44.4,46.8-2.1,2.8-19.3,11.4-8.8,12.6ZM153.1,71.5c11.2,5.2,25.2,21.6,32.2,31.4,6.9-1.4-1.5-16.9-2.1-21.5-1.3-3.1-5.3-6.7-8.3-8.2-4.3-1.2-22.1-9.9-21.9-1.8Z"/>
</svg>