<?xml version="1.0" encoding="UTF-8"?>
<svg id="n8" xmlns="http://www.w3.org/2000/svg" version="1.1" viewBox="0 0 256 256">
  <defs>
    <style>
      .st0 {
        fill: #fefefe;
      }
    </style>
  </defs>
  <path class="st0" d="M82.4,56c27.8,1.5,63.2.6,91.2.6,2.1,3.1,2.6,6.4,2.7,10-14.9,2.9-29.4,8.4-43.7,13.5-5.8,1.5-11.9,2.9-16.1,7.7,2,12.1,6.6,23.8,7.4,35.9-23.2,7.6-47.1,14.7-70.7,20.2l-.2-.5c10.5-27.6,18.5-59.4,29.3-87.4ZM86.9,72.5c1.8,12.6,16.9,10.8,17.6-.9-2.8-10.3-16-10.2-17.6.9Z"/>
  <path class="st0" d="M180.1,81.8c1.1,0,2.5-.2,2.9,1.1,1.5,6,3.5,12,5.6,17.8,4.8,13.6,8.7,28.7,14.2,42.1-1.7,4.8-6.6,7.1-10.6,9.7-5.4,4-10.8,8-16.5,11.6-5.6,3.4-10,10.5-16.7,11.5-5.3-4.3-7.5-21.5-10.3-28.1-4.9-14.5-8.1-29.6-12-44.4-1.6-8.3,1.1-8.7,8.5-10.3,4.7-1.3,30.9-9.7,35-11.2ZM163.8,122.4c8-1.8,13.2-9.4,10.5-17.4-16.9-21.1-36.2,13.5-10.5,17.4Z"/>
  <path class="st0" d="M124.7,136.6c4.5-1.3,4.5,4.5,5.7,7.7,1.4,3.5,2,7.1,3,10.8,2.7,8.7,5.7,17.3,8.4,26,.8,2,3,4.2,1.4,6.3-1.7,2.6-11.8,10.3-14.7,10.9-3.2.6-15-9.8-18-12-7.4-4.8-14.3-10.3-21.5-15.3-6.4-5.1-13.4-9.5-20.2-14-1.1-.6-1.6-1.7-.8-2.8,2.6-3.3,13.4-4.6,17.6-5.9,12.8-4.8,26.2-7.2,39.2-11.8Z"/>
</svg>