<?xml version="1.0" encoding="UTF-8"?>
<svg id="n10" xmlns="http://www.w3.org/2000/svg" version="1.1" viewBox="0 0 256 256">
  <defs>
    <style>
      .st0 {
        fill: #fefefe;
      }
    </style>
  </defs>
  <path class="st0" d="M128.4,42.3s0,0,0,0c1.8,0,3.3,1.3,3.8,3.1,4,15.1,7.4,30.7,14,44.9,9.7,21.4,26,39.8,32.2,62.8,7.3,28.6-18.5,60.2-47.8,60.3-28.8,2.6-54.4-23.6-54.2-51.9,0-.2,0-.3,0-.5,2.2-24.3,23-48.3,33.1-70,6.9-14.6,9.6-30.8,14.7-45.9.6-1.8,2.3-2.9,4.1-2.8ZM160.8,186.3c4-4.7,5.1-6.7,5.5-10.7s-2.7-5.4-5.5-4.3-4.5,2.1-7.2,3c-20.5,7.7-38.7,3.8-58.1-2.4-3-1-6,1.7-5.3,4.8,2.2,9.8,11.6,17,20.9,20.7,16.3,7.2,38.3,2.8,49.8-11.1Z"/>
</svg>